{
  "accessors": [
    {
      "bufferView": 2,
      "componentType": 5126,
      "count": 3478,
      "max": [
        4.776908874511719,
        453.07391357421875,
        172.6251220703125
      ],
      "min": [
        -65.31324768066406,
        -358.19769287109375,
        32.53893280029297
      ],
      "type": "VEC3"
    },
    {
      "bufferView": 2,
      "byteOffset": 41736,
      "componentType": 5126,
      "count": 3478,
      "max": [
        1.0,
        1.0,
        1.0
      ],
      "min": [
        -1.0,
        -1.0,
        -1.0
      ],
      "type": "VEC3"
    },
    {
      "bufferView": 3,
      "componentType": 5126,
      "count": 3478,
      "max": [
        1.0,
        1.0,
        1.0,
        1.0
      ],
      "min": [
        -1.0,
        -1.0,
        -1.0,
        -1.0
      ],
      "type": "VEC4"
    },
    {
      "bufferView": 1,
      "componentType": 5126,
      "count": 3478,
      "max": [
        0.9900000095367432,
        0.9840850234031677
      ],
      "min": [
        0.009999999776482582,
        0.009999999776482582
      ],
      "type": "VEC2"
    },
    {
      "bufferView": 0,
      "componentType": 5125,
      "count": 12906,
      "type": "SCALAR"
    },
    {
      "bufferView": 2,
      "byteOffset": 83472,
      "componentType": 5126,
      "count": 2177,
      "max": [
        -3.650078058242798,
        270.04351806640625,
        178.58140563964844
      ],
      "min": [
        -60.650089263916016,
        -345.7836608886719,
        42.507568359375
      ],
      "type": "VEC3"
    },
    {
      "bufferView": 2,
      "byteOffset": 109596,
      "componentType": 5126,
      "count": 2177,
      "max": [
        1.0,
        1.0,
        1.0
      ],
      "min": [
        -1.0,
        -1.0,
        -1.0
      ],
      "type": "VEC3"
    },
    {
      "bufferView": 3,
      "byteOffset": 55648,
      "componentType": 5126,
      "count": 2177,
      "max": [
        1.0,
        1.0,
        1.0,
        1.0
      ],
      "min": [
        -1.0,
        -1.0,
        -1.0,
        -1.0
      ],
      "type": "VEC4"
    },
    {
      "bufferView": 1,
      "byteOffset": 27824,
      "componentType": 5126,
      "count": 2177,
      "max": [
        0.9821130037307739,
        0.9860560297966003
      ],
      "min": [
        0.009999999776482582,
        0.009999999776482582
      ],
      "type": "VEC2"
    },
    {
      "bufferView": 0,
      "byteOffset": 51624,
      "componentType": 5125,
      "count": 7440,
      "type": "SCALAR"
    },
    {
      "bufferView": 2,
      "byteOffset": 135720,
      "componentType": 5126,
      "count": 50716,
      "max": [
        6.5068888664245605,
        160.79434204101563,
        143.3207244873047
      ],
      "min": [
        -69.06307983398438,
        19.442230224609375,
        -76.45358276367188
      ],
      "type": "VEC3"
    },
    {
      "bufferView": 2,
      "byteOffset": 744312,
      "componentType": 5126,
      "count": 50716,
      "max": [
        1.0,
        1.0,
        1.0
      ],
      "min": [
        -1.0,
        -1.0,
        -1.0
      ],
      "type": "VEC3"
    },
    {
      "bufferView": 3,
      "byteOffset": 90480,
      "componentType": 5126,
      "count": 50716,
      "max": [
        1.0,
        1.0,
        1.0,
        1.0
      ],
      "min": [
        -1.0,
        -1.0,
        -1.0,
        -1.0
      ],
      "type": "VEC4"
    },
    {
      "bufferView": 1,
      "byteOffset": 45240,
      "componentType": 5126,
      "count": 50716,
      "max": [
        0.9821130037307739,
        0.9821130037307739
      ],
      "min": [
        0.009999999776482582,
        0.009999999776482582
      ],
      "type": "VEC2"
    },
    {
      "bufferView": 0,
      "byteOffset": 81384,
      "componentType": 5125,
      "count": 280584,
      "type": "SCALAR"
    },
    {
      "bufferView": 2,
      "byteOffset": 1352904,
      "componentType": 5126,
      "count": 2308,
      "max": [
        -12.166427612304688,
        493.18743896484375,
        108.8467025756836
      ],
      "min": [
        -48.787620544433594,
        453.2467956542969,
        28.907474517822266
      ],
      "type": "VEC3"
    },
    {
      "bufferView": 2,
      "byteOffset": 1380600,
      "componentType": 5126,
      "count": 2308,
      "max": [
        1.0,
        0.9996866583824158,
        0.9979918599128723
      ],
      "min": [
        -1.0,
        -0.9972445964813232,
        -0.9992127418518066
      ],
      "type": "VEC3"
    },
    {
      "bufferView": 3,
      "byteOffset": 901936,
      "componentType": 5126,
      "count": 2308,
      "max": [
        1.0,
        0.8236246109008789,
        0.9998127222061157,
        -1.0
      ],
      "min": [
        -1.0,
        -0.9981251358985901,
        -0.6869475245475769,
        -1.0
      ],
      "type": "VEC4"
    },
    {
      "bufferView": 1,
      "byteOffset": 450968,
      "componentType": 5126,
      "count": 2308,
      "max": [
        0.9150699973106384,
        0.8677470088005066
      ],
      "min": [
        0.2593480050563812,
        0.009999999776482582
      ],
      "type": "VEC2"
    },
    {
      "bufferView": 0,
      "byteOffset": 1203720,
      "componentType": 5125,
      "count": 12096,
      "type": "SCALAR"
    },
    {
      "bufferView": 2,
      "byteOffset": 1408296,
      "componentType": 5126,
      "count": 100,
      "max": [
        -13.447488784790039,
        -340.8937072753906,
        134.77621459960938
      ],
      "min": [
        -48.29487228393555,
        -340.8937072753906,
        99.4256820678711
      ],
      "type": "VEC3"
    },
    {
      "bufferView": 2,
      "byteOffset": 1409496,
      "componentType": 5126,
      "count": 100,
      "max": [
        -0.0,
        -1.0,
        -0.0
      ],
      "min": [
        -0.0,
        -1.0,
        -0.0
      ],
      "type": "VEC3"
    },
    {
      "bufferView": 3,
      "byteOffset": 938864,
      "componentType": 5126,
      "count": 100,
      "max": [
        1.0,
        0.0,
        1.0,
        -1.0
      ],
      "min": [
        -1.0,
        0.0,
        -1.0,
        -1.0
      ],
      "type": "VEC4"
    },
    {
      "bufferView": 1,
      "byteOffset": 469432,
      "componentType": 5126,
      "count": 100,
      "max": [
        0.6252110004425049,
        0.6745070219039917
      ],
      "min": [
        0.24852000176906586,
        0.25253498554229736
      ],
      "type": "VEC2"
    },
    {
      "bufferView": 0,
      "byteOffset": 1252104,
      "componentType": 5125,
      "count": 384,
      "type": "SCALAR"
    },
    {
      "bufferView": 2,
      "byteOffset": 1410696,
      "componentType": 5126,
      "count": 215,
      "max": [
        -20.495800018310547,
        224.57357788085938,
        172.2843017578125
      ],
      "min": [
        -39.769287109375,
        -44.39436340332031,
        150.9138946533203
      ],
      "type": "VEC3"
    },
    {
      "bufferView": 2,
      "byteOffset": 1413276,
      "componentType": 5126,
      "count": 215,
      "max": [
        0.7164833545684814,
        1.0,
        0.7165099382400513
      ],
      "min": [
        -0.7164892554283142,
        -1.0,
        -0.7164931893348694
      ],
      "type": "VEC3"
    },
    {
      "bufferView": 3,
      "byteOffset": 940464,
      "componentType": 5126,
      "count": 215,
      "max": [
        0.9705367088317871,
        0.7165095210075378,
        0.9995138049125671,
        -1.0
      ],
      "min": [
        -0.9995309710502625,
        -0.7164958119392395,
        -0.9993882179260254,
        -1.0
      ],
      "type": "VEC4"
    },
    {
      "bufferView": 1,
      "byteOffset": 470232,
      "componentType": 5126,
      "count": 215,
      "max": [
        0.9525349736213684,
        0.9525349736213684
      ],
      "min": [
        0.009999999776482582,
        0.053380001336336136
      ],
      "type": "VEC2"
    },
    {
      "bufferView": 0,
      "byteOffset": 1253640,
      "componentType": 5125,
      "count": 576,
      "type": "SCALAR"
    },
    {
      "bufferView": 2,
      "byteOffset": 1415856,
      "componentType": 5126,
      "count": 1260,
      "max": [
        1.0067859888076782,
        234.0769500732422,
        175.51869201660156
      ],
      "min": [
        -63.68919372558594,
        -322.2548828125,
        59.26831817626953
      ],
      "type": "VEC3"
    },
    {
      "bufferView": 2,
      "byteOffset": 1430976,
      "componentType": 5126,
      "count": 1260,
      "max": [
        1.0,
        1.0,
        1.0
      ],
      "min": [
        -1.0,
        -1.0,
        -1.0
      ],
      "type": "VEC3"
    },
    {
      "bufferView": 3,
      "byteOffset": 943904,
      "componentType": 5126,
      "count": 1260,
      "max": [
        0.9999548196792603,
        0.9999574422836304,
        1.0,
        1.0
      ],
      "min": [
        -0.9999998211860657,
        -0.9999905824661255,
        -1.0,
        -1.0
      ],
      "type": "VEC4"
    },
    {
      "bufferView": 1,
      "byteOffset": 471952,
      "componentType": 5126,
      "count": 1260,
      "max": [
        0.9840850234031677,
        0.9821130037307739
      ],
      "min": [
        0.009999999776482582,
        0.009999999776482582
      ],
      "type": "VEC2"
    },
    {
      "bufferView": 0,
      "byteOffset": 1255944,
      "componentType": 5125,
      "count": 5256,
      "type": "SCALAR"
    },
    {
      "bufferView": 2,
      "byteOffset": 1446096,
      "componentType": 5126,
      "count": 7190,
      "max": [
        -15.23046875,
        473.4816589355469,
        151.30198669433594
      ],
      "min": [
        -46.53148651123047,
        201.10943603515625,
        -78.93168640136719
      ],
      "type": "VEC3"
    },
    {
      "bufferView": 2,
      "byteOffset": 1532376,
      "componentType": 5126,
      "count": 7190,
      "max": [
        1.0,
        0.9973423480987549,
        0.9999997615814209
      ],
      "min": [
        -1.0,
        -0.9999921321868896,
        -1.0
      ],
      "type": "VEC3"
    },
    {
      "bufferView": 3,
      "byteOffset": 964064,
      "componentType": 5126,
      "count": 7190,
      "max": [
        1.0,
        0.9999998807907104,
        0.9999745488166809,
        1.0
      ],
      "min": [
        -1.0,
        -0.9999998211860657,
        -0.9999998211860657,
        -1.0
      ],
      "type": "VEC4"
    },
    {
      "bufferView": 1,
      "byteOffset": 482032,
      "componentType": 5126,
      "count": 7190,
      "max": [
        0.9840850234031677,
        0.9821130037307739
      ],
      "min": [
        0.009999999776482582,
        0.009999999776482582
      ],
      "type": "VEC2"
    },
    {
      "bufferView": 0,
      "byteOffset": 1276968,
      "componentType": 5125,
      "count": 33312,
      "type": "SCALAR"
    },
    {
      "bufferView": 2,
      "byteOffset": 1618656,
      "componentType": 5126,
      "count": 9516,
      "max": [
        -2.5859179496765137,
        256.9890441894531,
        143.52999877929688
      ],
      "min": [
        -57.27672576904297,
        -347.3326416015625,
        -40.607757568359375
      ],
      "type": "VEC3"
    },
    {
      "bufferView": 2,
      "byteOffset": 1732848,
      "componentType": 5126,
      "count": 9516,
      "max": [
        1.0,
        0.9999982118606567,
        0.9999998807907104
      ],
      "min": [
        -1.0,
        -1.0,
        -1.0
      ],
      "type": "VEC3"
    },
    {
      "bufferView": 3,
      "byteOffset": 1079104,
      "componentType": 5126,
      "count": 9516,
      "max": [
        1.0,
        1.0,
        0.9999463558197021,
        1.0
      ],
      "min": [
        -1.0,
        -1.0,
        -0.9999999403953552,
        -1.0
      ],
      "type": "VEC4"
    },
    {
      "bufferView": 1,
      "byteOffset": 539552,
      "componentType": 5126,
      "count": 9516,
      "max": [
        0.9801409840583801,
        0.9840850234031677
      ],
      "min": [
        0.009999999776482582,
        0.009999999776482582
      ],
      "type": "VEC2"
    },
    {
      "bufferView": 0,
      "byteOffset": 1410216,
      "componentType": 5125,
      "count": 47904,
      "type": "SCALAR"
    }
  ],
  "asset": {
    "extras": {
      "author": "Likeness3d (https://sketchfab.com/jbrancik)",
      "license": "CC-BY-4.0 (http://creativecommons.org/licenses/by/4.0/)",
      "source": "https://sketchfab.com/3d-models/rockets-gun-fc788bd6da37478ba84a1209bb15cf0a",
      "title": "Rockets Gun"
    },
    "generator": "Sketchfab-14.51.0",
    "version": "2.0"
  },
  "bufferViews": [
    {
      "buffer": 0,
      "byteLength": 1601832,
      "name": "floatBufferViews",
      "target": 34963
    },
    {
      "buffer": 0,
      "byteLength": 615680,
      "byteOffset": 1601832,
      "byteStride": 8,
      "name": "floatBufferViews",
      "target": 34962
    },
    {
      "buffer": 0,
      "byteLength": 1847040,
      "byteOffset": 2217512,
      "byteStride": 12,
      "name": "floatBufferViews",
      "target": 34962
    },
    {
      "buffer": 0,
      "byteLength": 1231360,
      "byteOffset": 4064552,
      "byteStride": 16,
      "name": "floatBufferViews",
      "target": 34962
    }
  ],
  "buffers": [
    {
      "byteLength": 5295912,
      "uri": "scene.bin"
    }
  ],
  "extensionsRequired": [
    "KHR_materials_pbrSpecularGlossiness"
  ],
  "extensionsUsed": [
    "KHR_materials_pbrSpecularGlossiness"
  ],
  "images": [
    {
      "uri": "textures/wire_000000255_diffuse.jpeg"
    },
    {
      "uri": "textures/wire_000000255_specularGlossiness.jpeg"
    },
    {
      "uri": "textures/wire_000000255_normal.jpeg"
    },
    {
      "uri": "textures/wire_000255000_specularGlossiness.png"
    },
    {
      "uri": "textures/wire_000255000_emissive.jpeg"
    },
    {
      "uri": "textures/wire_255000000_specularGlossiness.png"
    }
  ],
  "materials": [
    {
      "extensions": {
        "KHR_materials_pbrSpecularGlossiness": {
          "diffuseFactor": [
            1.0,
            1.0,
            1.0,
            1.0
          ],
          "diffuseTexture": {
            "index": 0
          },
          "glossinessFactor": 0.07,
          "specularFactor": [
            0.5,
            0.5,
            0.5
          ],
          "specularGlossinessTexture": {
            "index": 1
          }
        }
      },
      "name": "wire_000000255",
      "normalTexture": {
        "index": 2
      }
    },
    {
      "doubleSided": true,
      "emissiveFactor": [
        1.0,
        1.0,
        1.0
      ],
      "emissiveTexture": {
        "index": 4
      },
      "extensions": {
        "KHR_materials_pbrSpecularGlossiness": {
          "diffuseFactor": [
            1.0,
            1.0,
            1.0,
            1.0
          ],
          "diffuseTexture": {
            "index": 0
          },
          "glossinessFactor": 0.46,
          "specularFactor": [
            0.5700000000000001,
            0.5700000000000001,
            0.5700000000000001
          ],
          "specularGlossinessTexture": {
            "index": 3
          }
        }
      },
      "name": "wire_000255000",
      "normalTexture": {
        "index": 2
      }
    },
    {
      "doubleSided": true,
      "emissiveFactor": [
        1.0,
        1.0,
        1.0
      ],
      "emissiveTexture": {
        "index": 4
      },
      "extensions": {
        "KHR_materials_pbrSpecularGlossiness": {
          "diffuseFactor": [
            1.0,
            1.0,
            1.0,
            1.0
          ],
          "diffuseTexture": {
            "index": 0
          },
          "glossinessFactor": 0.8,
          "specularFactor": [
            1.0,
            1.0,
            1.0
          ],
          "specularGlossinessTexture": {
            "index": 1
          }
        }
      },
      "name": "wire_006135058",
      "normalTexture": {
        "index": 2
      }
    },
    {
      "doubleSided": true,
      "extensions": {
        "KHR_materials_pbrSpecularGlossiness": {
          "diffuseFactor": [
            1.0,
            1.0,
            1.0,
            1.0
          ],
          "diffuseTexture": {
            "index": 0
          },
          "glossinessFactor": 0.8,
          "specularFactor": [
            1.0,
            1.0,
            1.0
          ],
          "specularGlossinessTexture": {
            "index": 1
          }
        }
      },
      "name": "wire_108008136",
      "normalTexture": {
        "index": 2
      }
    },
    {
      "doubleSided": true,
      "emissiveFactor": [
        1.0,
        1.0,
        1.0
      ],
      "emissiveTexture": {
        "index": 4
      },
      "extensions": {
        "KHR_materials_pbrSpecularGlossiness": {
          "diffuseFactor": [
            1.0,
            1.0,
            1.0,
            1.0
          ],
          "diffuseTexture": {
            "index": 0
          },
          "glossinessFactor": 0.81,
          "specularFactor": [
            0.54,
            0.54,
            0.54
          ],
          "specularGlossinessTexture": {
            "index": 5
          }
        }
      },
      "name": "wire_255000000",
      "normalTexture": {
        "index": 2,
        "scale": 0.45
      }
    }
  ],
  "meshes": [
    {
      "name": "Object_0",
      "primitives": [
        {
          "attributes": {
            "NORMAL": 1,
            "POSITION": 0,
            "TANGENT": 2,
            "TEXCOORD_0": 3
          },
          "indices": 4,
          "material": 0,
          "mode": 4
        }
      ]
    },
    {
      "name": "Object_1",
      "primitives": [
        {
          "attributes": {
            "NORMAL": 6,
            "POSITION": 5,
            "TANGENT": 7,
            "TEXCOORD_0": 8
          },
          "indices": 9,
          "material": 1,
          "mode": 4
        }
      ]
    },
    {
      "name": "Object_2",
      "primitives": [
        {
          "attributes": {
            "NORMAL": 11,
            "POSITION": 10,
            "TANGENT": 12,
            "TEXCOORD_0": 13
          },
          "indices": 14,
          "material": 1,
          "mode": 4
        }
      ]
    },
    {
      "name": "Object_3",
      "primitives": [
        {
          "attributes": {
            "NORMAL": 16,
            "POSITION": 15,
            "TANGENT": 17,
            "TEXCOORD_0": 18
          },
          "indices": 19,
          "material": 1,
          "mode": 4
        }
      ]
    },
    {
      "name": "Object_4",
      "primitives": [
        {
          "attributes": {
            "NORMAL": 21,
            "POSITION": 20,
            "TANGENT": 22,
            "TEXCOORD_0": 23
          },
          "indices": 24,
          "material": 2,
          "mode": 4
        }
      ]
    },
    {
      "name": "Object_5",
      "primitives": [
        {
          "attributes": {
            "NORMAL": 26,
            "POSITION": 25,
            "TANGENT": 27,
            "TEXCOORD_0": 28
          },
          "indices": 29,
          "material": 3,
          "mode": 4
        }
      ]
    },
    {
      "name": "Object_6",
      "primitives": [
        {
          "attributes": {
            "NORMAL": 31,
            "POSITION": 30,
            "TANGENT": 32,
            "TEXCOORD_0": 33
          },
          "indices": 34,
          "material": 4,
          "mode": 4
        }
      ]
    },
    {
      "name": "Object_7",
      "primitives": [
        {
          "attributes": {
            "NORMAL": 36,
            "POSITION": 35,
            "TANGENT": 37,
            "TEXCOORD_0": 38
          },
          "indices": 39,
          "material": 4,
          "mode": 4
        }
      ]
    },
    {
      "name": "Object_8",
      "primitives": [
        {
          "attributes": {
            "NORMAL": 41,
            "POSITION": 40,
            "TANGENT": 42,
            "TEXCOORD_0": 43
          },
          "indices": 44,
          "material": 4,
          "mode": 4
        }
      ]
    }
  ],
  "nodes": [
    {
      "children": [
        1
      ],
      "matrix": [
        1.0,
        0.0,
        0.0,
        0.0,
        0.0,
        2.220446049250313e-16,
        -1.0,
        0.0,
        0.0,
        1.0,
        2.220446049250313e-16,
        0.0,
        0.0,
        0.0,
        0.0,
        1.0
      ],
      "name": "Sketchfab_model"
    },
    {
      "children": [
        2,
        3,
        4,
        5,
        6,
        7,
        8,
        9,
        10
      ],
      "name": "Rockets_Gun_UV_08.obj.cleaner"
    },
    {
      "mesh": 0,
      "name": "Object_2"
    },
    {
      "mesh": 1,
      "name": "Object_3"
    },
    {
      "mesh": 2,
      "name": "Object_4"
    },
    {
      "mesh": 3,
      "name": "Object_5"
    },
    {
      "mesh": 4,
      "name": "Object_6"
    },
    {
      "mesh": 5,
      "name": "Object_7"
    },
    {
      "mesh": 6,
      "name": "Object_8"
    },
    {
      "mesh": 7,
      "name": "Object_9"
    },
    {
      "mesh": 8,
      "name": "Object_10"
    }
  ],
  "samplers": [
    {
      "magFilter": 9729,
      "minFilter": 9987,
      "wrapS": 10497,
      "wrapT": 10497
    }
  ],
  "scene": 0,
  "scenes": [
    {
      "name": "Sketchfab_Scene",
      "nodes": [
        0
      ]
    }
  ],
  "textures": [
    {
      "sampler": 0,
      "source": 0
    },
    {
      "sampler": 0,
      "source": 1
    },
    {
      "sampler": 0,
      "source": 2
    },
    {
      "sampler": 0,
      "source": 3
    },
    {
      "sampler": 0,
      "source": 4
    },
    {
      "sampler": 0,
      "source": 5
    }
  ]
}
